# AST/ASF file generated using VICON BodyLanguage
# -----------------------------------------------
:version 1.10
:name VICON
:units
  mass 1.0
  length 0.45
  angle deg
:documentation
   .ast/.asf automatically generated from VICON data using
   VICON BodyBuilder and BodyLanguage model FoxedUp or BRILLIANT.MOD
:root
   order TX TY TZ RX RY RZ
   axis XYZ
   position 0 0 0  
   orientation 0 0 0 
:bonedata
  begin
     id 1 
     name lhipjoint
     direction 0.567149 -0.783011 0.255413 
     length 2.28399 
     axis 0 0 0  XYZ
  end
  begin
     id 2 
     name lfemur
     direction 0.34202 -0.939693 0  
     length 7.34031  
     axis 0 0 20  XYZ
    dof rx ry rz
    limits (-160.0 20.0)
           (-70.0 70.0)
           (-60.0 70.0)
  end
  begin
     id 3 
     name ltibia
     direction 0.34202 -0.939693 0   
     length 6.9833   
     axis 0 0 20   XYZ
    dof rx
    limits (-10.0 170.0)
  end
  begin
     id 4 
     name lfoot
     direction 0.136498 -0.375025 0.91691   
     length 2.33665   
     axis -90 7.62852e-016 20   XYZ
    dof rx rz
    limits (-45.0 90.0)
           (-70.0 20.0)
  end
  begin
     id 5 
     name ltoes
     direction 1.5367e-011 -4.21617e-011 1   
     length 1.15039   
     axis -90 7.62852e-016 20   XYZ
    dof rx
    limits (-90.0 20.0)
  end
  begin
     id 6 
     name rhipjoint
     direction -0.602854 -0.758518 0.247423   
     length 2.35775  
     axis 0 0 0  XYZ 
  end
  begin
     id 7 
     name rfemur
     direction -0.34202 -0.939693 0   
     length 7.43932   
     axis 0 0 -20   XYZ
    dof rx ry rz
    limits (-160.0 20.0)
           (-70.0 70.0)
           (-70.0 60.0)
  end
  begin
     id 8 
     name rtibia
     direction -0.34202 -0.939693 0   
     length 7.11893   
     axis 0 0 -20   XYZ
    dof rx
    limits (-10.0 170.0)
 end
 begin
     id 9 
     name rfoot
     direction -0.131771 -0.362037 0.922803   
     length 2.53019  
     axis -90 -7.62852e-016 -20   XYZ
    dof rx rz
    limits (-45.0 90.0)
           (-20.0 70.0)
  end
  begin
     id 10 
     name rtoes
     direction -1.53733e-011 -4.21932e-011 1   
     length 1.24596   
     axis -90 -7.62852e-016 -20   XYZ
    dof rx
    limits (-90.0 20.0)
  end
  begin
     id 11 
     name lowerback
     direction 0.0235427 0.999023 -0.0374125   
     length 2.21768   
     axis 0 0 0   XYZ
    dof rx ry rz
    limits (-20.0 45.0)
           (-30.0 30.0)
           (-30.0 30.0)
  end
  begin
     id 12 
     name upperback
     direction 0.0302156 0.996818 -0.073759   
     length 2.20352   
     axis 0 0 0   XYZ
    dof rx ry rz
    limits (-20.0 45.0)
           (-30.0 30.0)
           (-30.0 30.0)
  end
  begin
     id 13 
     name thorax
     direction 0.0187169 0.998235 -0.0563532   
     length 2.22103   
     axis 0 0 0   XYZ
    dof rx ry rz
    limits (-20.0 45.0)
           (-30.0 30.0)
           (-30.0 30.0)
  end
  begin
     id 14 
     name lowerneck
     direction -0.119528 0.987423 0.103481   
     length 1.72948   
     axis 0 0 0   XYZ
    dof rx ry rz
    limits (-20.0 45.0)
           (-30.0 30.0)
           (-30.0 30.0)
  end
  begin
     id 15 
     name upperneck
     direction 0.248049 0.963095 -0.104496   
     length 1.74979   
     axis 0 0 0   XYZ
    dof rx ry rz
    limits (-20.0 45.0)
           (-30.0 30.0)
           (-30.0 30.0)
  end
  begin
     id 16
     name head
     direction 0.0903589 0.994284 -0.056876  
     length 1.78268  
     axis 0 0 0   XYZ
    dof rx ry rz
    limits (-20.0 45.0)
           (-30.0 30.0)
           (-30.0 30.0)
  end
  begin
     id 17 
     name lclavicle
     direction 0.946008 0.242039 -0.215608  
     length 3.80783  
     axis 0 0 0   XYZ
    dof ry rz
    limits (-20.0 10.0)
           (0.0 20.0)
  end
  begin
     id 18 
     name lhumerus
     direction 1 -4.48991e-011 -2.25695e-027   
     length 4.83125   
     axis 180 -30 -90   XYZ
    dof rx ry rz
    limits (-60.0 90.0)
           (-90.0 90.0)
           (-90.0 90.0)
  end
  begin
     id 19
     name lradius
     direction 0.999991 0.00366712 -0.00211721   
     length 3.00391   
     axis 180 -30 -90   XYZ
    dof rx
    limits (-10.0 170.0)
  end
  begin
     id 20
     name lwrist
     direction 0.999991 0.00393016 -0.00141978   
     length 1.50195   
     axis -1.00488e-014 90 90   XYZ
    dof ry
    limits (-180.0 0.0)
 end
  begin
     id 21 
     name lhand
     direction 1 -4.49123e-011 2.72098e-026   
     length 1.2717   
     axis -1.73687e-014 90 90   XYZ
    dof rx rz
    limits (-90.0 90.0)
           (-45.0 45.0)
  end
  begin
     id 22 
     name lfingers
     direction 1 -4.48678e-011 5.4479e-026   
     length 1.02528   
     axis -3.47372e-014 90 90   XYZ
    dof rx
    limits (0.0 90.0)
  end
  begin
     id 23
     name lthumb
     direction 0.707107 -6.34851e-011 0.707107   
     length 1.4721   
     axis -90 45 -1.62303e-014   XYZ
    dof rx rz
    limits (-45.0 45.0)
           (-45.0 45.0)
  end
  begin
     id 24 
     name rclavicle
     direction -0.981723 0.189447 -0.0181673   
     length 3.74989  
     axis 0 0 0   XYZ 
    dof ry rz
    limits (-10.0 20.0)
           (-20.0 0.0)
  end
  begin
     id 25 
     name rhumerus
     direction -1 -4.48985e-011 2.38206e-027  
     length 4.61118   
     axis 180 30 90   XYZ
    dof rx ry rz
    limits (-90.0 60.0)
           (-90.0 90.0)
           (-90.0 90.0)
  end
  begin
     id 26 
     name rradius
     direction -1 -4.48977e-011 7.41019e-027   
     length 2.91491   
     axis 180 30 90   XYZ
    dof rx
    limits (-10.0 170.0)
  end
  begin
     id 27 
     name rwrist
     direction -1 -4.48549e-011 1.3624e-026   
     length 1.45745   
     axis -1.00488e-014 -90 -90   XYZ
    dof ry
    limits (-180.0 0.0)
  end
  begin
     id 28
     name rhand
     direction -1 -4.49107e-011 2.72109e-026   
     length 1.30769   
     axis -1.73687e-014 -90 -90   XYZ
    dof rx rz
    limits (-90.0 90.0)
           (-45.0 45.0)
  end
  begin
     id 29
     name rfingers
     direction -1 -4.48919e-011 5.44468e-026   
     length 1.05429   
     axis -3.47372e-014 -90 -90   XYZ
    dof rx
    limits (0.0 90.0)
  end
  begin
     id 30
     name rthumb
     direction -0.707107 -6.35315e-011 0.707107   
     length 1.51376   
     axis -90 -45 1.62303e-014   XYZ
    dof rx rz
    limits (-45.0 45.0)
           (-45.0 45.0)
  end
:hierarchy
  begin
    root lhipjoint rhipjoint lowerback
    lhipjoint lfemur
    lfemur ltibia
    ltibia lfoot
    lfoot ltoes
    rhipjoint rfemur
    rfemur rtibia
    rtibia rfoot
    rfoot rtoes
    lowerback upperback
    upperback thorax
    thorax lowerneck lclavicle rclavicle
    lowerneck upperneck
    upperneck head
    lclavicle lhumerus
    lhumerus lradius
    lradius lwrist
    lwrist lhand lthumb
    lhand lfingers
    rclavicle rhumerus
    rhumerus rradius
    rradius rwrist
    rwrist rhand rthumb
    rhand rfingers
  end

#!OML:ASF X:\für Bonn\!DataBase\2005_08_11_Bastian_Final\c3d\Bastian.ASF
:FULLY-SPECIFIED
:DEGREES
1
root -3.44108 16.3191 -17.3789 164.108 1.58584 -182.551
lowerback 14.0725 -5.24565 -7.18226
upperback 10.0052 -6.0768 -2.96405
thorax 3.28261 -2.62517 1.54557
lowerneck -5.75905 -3.14145 -7.98324
upperneck -5.55112 -3.19401 9.7477
head -0.441965 -1.32588 4.62452
rclavicle -5.4467e-014 4.05521e-014
rhumerus -35.2817 26.8384 -103.474
rradius 114.413
rwrist 10.0698
rhand -26.0128 18.4289
rfingers 7.12502
rthumb 0.533354 -11.5502
lclavicle -5.4467e-014 4.05521e-014
lhumerus -11.8319 -49.2804 94.0555
lradius 115.021
lwrist 39.1526
lhand -12.7025 -21.6004
lfingers 7.12502
lthumb 13.38 7.94994
rfemur -13.2979 -4.04768 14.2731
rtibia 85.6194
rfoot -194.873 -191.601
rtoes 16.2935
lfemur 4.29956 12.0875 -11.9684
ltibia 48.1065
lfoot -25.3377 -6.72127
ltoes -21.6395
2
root -3.46087 16.3635 -17.4592 164.319 0.57261 -182.505
lowerback 14.2949 -5.27412 -7.23377
upperback 9.99886 -6.11038 -2.99661
thorax 3.16508 -2.62706 1.56124
lowerneck -5.73945 -3.44578 -7.94406
upperneck -5.6341 -3.58406 10.0016
head -0.42876 -1.51627 4.69928
rclavicle -2.99171e-014 -2.62396e-014
rhumerus -34.8746 27.1964 -103.203
rradius 114.539
rwrist 10.0816
rhand -26.3473 18.2161
rfingers 7.12502
rthumb 0.21028 -11.7635
lclavicle -2.99171e-014 -2.62396e-014
lhumerus -11.83 -49.6539 94.536
lradius 114.644
lwrist 39.1093
lhand -12.7217 -21.5811
lfingers 7.12502
lthumb 13.3615 7.97046
rfemur -14.7624 -5.04619 14.5537
rtibia 86.3523
rfoot -195.316 -190.107
rtoes 14.2167
lfemur 4.64791 11.4486 -12.2758
ltibia 47.1906
lfoot -25.2006 -6.84373
ltoes -21.7086
3
root -3.47889 16.4052 -17.5386 164.516 -0.453856 -182.393
lowerback 14.4143 -3.04266 -6.61934
upperback 10.1064 -6.70235 -2.70645
thorax 3.05625 -4.42944 1.54878
lowerneck -5.6645 -3.74495 -7.88267
upperneck -5.83064 -3.94172 10.5832
head -0.397359 -1.70046 4.40534
rclavicle -5.66536e-015 5.00937e-014
rhumerus -34.5578 27.4713 -102.894
rradius 114.733
rwrist 10.0438
rhand -26.6828 17.9734
rfingers 7.12502
rthumb -0.113759 -12.0063
lclavicle -5.66536e-015 5.00937e-014
lhumerus -11.8355 -50.051 95.0023
lradius 114.292
lwrist 39.0428
lhand -12.8207 -21.5081
lfingers 7.12502
lthumb 13.2661 8.04971
rfemur -16.1111 -5.98894 14.9627
rtibia 86.6993
rfoot -195.508 -188.494
rtoes 11.4679
lfemur 5.06461 10.7814 -12.4873
ltibia 46.1402
lfoot -24.9762 -6.98109
ltoes -21.8564
4
root -3.49294 16.453 -17.6212 164.721 -1.4706 -182.304
lowerback 14.5571 -3.06371 -6.61102
upperback 10.1106 -6.72778 -2.72362
thorax 2.98469 -4.43417 1.54354
lowerneck -5.48621 -4.02178 -7.86426
upperneck -5.98386 -4.29799 10.8718
head -0.428977 -1.87973 4.48582
rclavicle 1.23246e-014 -7.95139e-015
rhumerus -34.3638 27.6571 -102.627
rradius 114.981
rwrist 10.0077
rhand -27.0226 17.7629
rfingers 7.12502
rthumb -0.441961 -12.2164
lclavicle 1.23246e-014 -7.95139e-015
lhumerus -11.9118 -50.4342 95.5044
lradius 113.954
lwrist 38.8957
lhand -13.0066 -21.4335
lfingers 7.12502
lthumb 13.0869 8.13595
rfemur -17.4158 -6.85759 15.3647
rtibia 86.7788
rfoot -195.668 -186.458
rtoes 8.97704
lfemur 5.53419 9.78543 -12.8715
ltibia 44.9979
lfoot -24.7995 -6.7577
ltoes -21.9612
5
root -3.50383 16.5291 -17.7121 164.916 -2.50651 -182.152
lowerback 14.6737 -3.11354 -6.55479
upperback 10.1276 -6.78256 -2.71792
thorax 2.94047 -4.45267 1.53518
lowerneck -5.33473 -4.29007 -7.80602
upperneck -6.10722 -4.64822 11.0901
head -0.450515 -2.05668 4.53778
rclavicle 1.19271e-015 5.00937e-014
rhumerus -34.2092 27.7821 -102.425
rradius 115.28
rwrist 10.0093
rhand -27.2796 17.564
rfingers 7.12502
rthumb -0.690098 -12.4146
lclavicle 1.19271e-015 5.00937e-014
lhumerus -12.0968 -50.7251 96.0865
lradius 113.658
lwrist 38.7516
lhand -13.162 -21.3121
lfingers 7.12502
lthumb 12.937 8.26686
rfemur -18.5195 -7.66579 15.849
rtibia 86.492
rfoot -195.821 -184.299
rtoes 6.62181
lfemur 6.13116 8.35537 -13.3865
ltibia 43.7076
lfoot -24.6802 -6.11191
ltoes -22.2188
6
root -3.51348 16.5807 -17.8031 165.096 -3.54927 -182.002
lowerback 14.7487 -3.15199 -6.49416
upperback 10.157 -6.81819 -2.70951
thorax 2.92993 -4.46288 1.52001
lowerneck -5.18255 -4.55991 -7.7375
upperneck -6.2432 -4.99695 11.3304
head -0.474877 -2.23279 4.59506
rclavicle -6.48038e-014 2.78299e-014
rhumerus -34.129 27.7976 -102.267
rradius 115.715
rwrist 10.0526
rhand -27.5226 17.3377
rfingers 7.12502
rthumb -0.92481 -12.6401
lclavicle -6.48038e-014 2.78299e-014
lhumerus -12.3737 -50.9927 96.7353
lradius 113.381
lwrist 38.5694
lhand -13.3393 -21.1741
lfingers 7.12502
lthumb 12.7661 8.4156
rfemur -19.6917 -8.36243 16.3353
rtibia 86.177
rfoot -196.005 -182.269
rtoes 4.49807
lfemur 6.73605 6.8727 -13.893
ltibia 42.4163
lfoot -24.532 -5.38116
ltoes -22.6006
7
root -3.52106 16.629 -17.897 165.268 -4.59463 -181.805
lowerback 14.7961 -3.20127 -6.40363
upperback 10.1877 -6.85913 -2.67111
thorax 2.93604 -4.47436 1.51734
lowerneck -5.05012 -4.82153 -7.6885
upperneck -6.32254 -5.33993 11.556
head -0.479519 -2.40608 4.65001
rclavicle 3.77691e-014 -3.65764e-014
rhumerus -34.0529 27.7357 -102.099
rradius 116.213
rwrist 10.0735
rhand -27.6398 17.1535
rfingers 7.12502
rthumb -1.03806 -12.8237
lclavicle 3.77691e-014 -3.65764e-014
lhumerus -12.6627 -51.2155 97.4077
lradius 113.115
lwrist 38.41
lhand -13.5142 -21.0844
lfingers 7.12502
lthumb 12.5975 8.51577
rfemur -20.8306 -8.95757 16.8614
rtibia 85.724
rfoot -196.153 -180.548
rtoes 2.65226
lfemur 7.36656 5.34808 -14.3329
ltibia 41.1457
lfoot -24.4164 -4.67784
ltoes -22.9342
8
root -3.52629 16.6734 -17.9899 165.421 -5.66151 -181.628
lowerback 14.8965 -3.2447 -6.33681
upperback 10.2017 -6.89841 -2.62039
thorax 2.90054 -4.48466 1.54716
lowerneck -4.92181 -5.08743 -7.6261
upperneck -6.39041 -5.69303 11.728
head -0.481157 -2.58513 4.68585
rclavicle 7.69297e-014 4.77083e-015
rhumerus -34.0229 27.6158 -101.9
rradius 116.718
rwrist 10.0721
rhand -27.7339 17.0787
rfingers 7.12502
rthumb -1.12889 -12.8981
lclavicle 7.69297e-014 4.77083e-015
lhumerus -13.0213 -51.4941 98.0836
lradius 112.854
lwrist 38.2244
lhand -13.7992 -21.0682
lfingers 7.12502
lthumb 12.3227 8.54865
rfemur -21.9692 -9.47044 17.3247
rtibia 85.22
rfoot -196.383 -179.082
rtoes 1.41704
lfemur 7.93897 3.89558 -14.7357
ltibia 40.0502
lfoot -24.3526 -4.02947
ltoes -23.287
9
root -3.52836 16.708 -18.0843 165.612 -6.77576 -181.44
lowerback 14.9291 -3.30333 -6.26907
upperback 10.2069 -6.94539 -2.56208
thorax 2.89308 -4.49649 1.57883
lowerneck -4.75433 -5.34554 -7.6165
upperneck -6.48017 -6.03131 11.9586
head -0.492457 -2.7573 4.74987
rclavicle 2.82274e-014 8.74653e-015
rhumerus -34.0126 27.4555 -101.698
rradius 117.209
rwrist 9.99644
rhand -27.8486 17.0924
rfingers 7.12502
rthumb -1.2397 -12.8838
lclavicle 2.82274e-014 8.74653e-015
lhumerus -13.393 -51.759 98.7186
lradius 112.603
lwrist 38.0722
lhand -14.061 -21.0664
lfingers 7.12502
lthumb 12.0703 8.56544
rfemur -23.0865 -9.9673 17.7501
rtibia 84.5802
rfoot -196.656 -177.782
rtoes 0.808148
lfemur 8.40735 2.76049 -14.9302
ltibia 39.0758
lfoot -24.2928 -3.74303
ltoes -23.7773
10
root -3.52787 16.7385 -18.1812 165.829 -7.98067 -181.236
lowerback 14.9134 -3.39196 -6.1707
upperback 10.2026 -7.01796 -2.49939
thorax 2.89951 -4.51686 1.59691
lowerneck -4.59482 -5.61649 -7.5968
upperneck -6.54844 -6.39021 12.1705
head -0.494612 -2.94004 4.80534
rclavicle 7.69297e-014 -3.73715e-014
rhumerus -33.9764 27.2513 -101.407
rradius 117.716
rwrist 9.88683
rhand -27.8815 17.112
rfingers 7.12502
rthumb -1.27146 -12.864
lclavicle 7.69297e-014 -3.73715e-014
lhumerus -13.7171 -52.0955 99.2508
lradius 112.398
lwrist 38.039
lhand -14.3152 -21.0578
lfingers 7.12502
lthumb 11.8252 8.58834
rfemur -24.1956 -10.5144 18.1092
rtibia 83.8647
rfoot -196.917 -176.75
rtoes 0.524418
lfemur 8.77012 1.6178 -15.0684
ltibia 38.2056
lfoot -24.2509 -3.52624
ltoes -24.3346
11
root -3.52454 16.7665 -18.281 166.065 -9.25355 -181.016
lowerback 14.849 -3.50036 -6.07286
upperback 10.1966 -7.10946 -2.43742
thorax 2.93124 -4.54565 1.61127
lowerneck -4.44224 -5.88663 -7.49674
upperneck -6.60142 -6.75312 12.3327
head -0.495278 -3.12608 4.83193
rclavicle -9.78021e-014 4.85035e-014
rhumerus -33.9013 27.0507 -101.123
rradius 118.18
rwrist 9.77863
rhand -27.9359 17.153
rfingers 7.12502
rthumb -1.32399 -12.8226
lclavicle -9.78021e-014 4.85035e-014
lhumerus -13.9382 -52.5479 99.5924
lradius 112.207
lwrist 38.1127
lhand -14.6757 -21.1166
lfingers 7.12502
lthumb 11.4775 8.54921
rfemur -25.2877 -11.0817 18.4238
rtibia 83.0817
rfoot -197.167 -176.221
rtoes -0.0444366
lfemur 9.05585 0.591312 -15.0868
ltibia 37.4165
lfoot -24.2111 -3.49904
ltoes -24.9071
